<svg width="167" height="163" viewBox="0 0 167 163" fill="none" xmlns="http://www.w3.org/2000/svg">
<g filter="url(#filter0_d_10_954)">
<path d="M113.246 3.0042C120.61 -3.1551 131.579 3.59485 129.4 12.9452L120.706 50.2428C119.73 54.4315 121.541 58.7753 125.204 61.0294L158.143 81.2993C166.452 86.4125 163.27 99.1803 153.533 99.796L115.913 102.174C111.508 102.453 107.806 105.586 106.805 109.885L98.3016 146.364C96.1084 155.774 83.1702 156.911 79.3691 148.028L64.0042 112.123C62.3389 108.232 58.404 105.81 54.1796 106.078L15.2029 108.542C5.56048 109.151 0.745169 97.089 8.1566 90.8907L36.8902 66.8606C40.2759 64.0292 41.4049 59.313 39.6685 55.2554L24.8382 20.5996C20.9999 11.6301 30.9637 3.0356 39.2728 8.14883L72.2115 28.4187C75.8744 30.6728 80.5684 30.3323 83.8677 27.5731L113.246 3.0042Z" fill="#2E7148"/>
<path d="M114.529 4.53882C120.329 -0.311581 128.922 4.8447 127.527 12.142L127.452 12.4914L118.759 49.7883C117.587 54.8147 119.761 60.0276 124.156 62.7325L157.095 83.0023C163.638 87.029 161.274 96.9898 153.768 97.7697L153.407 97.7997L115.786 100.178C110.666 100.502 106.338 104.041 104.979 108.951L104.857 109.431L96.3538 145.91C94.6266 153.32 84.5697 154.318 81.3552 147.569L81.2083 147.241L65.843 111.337C63.9072 106.813 59.4152 103.944 54.5278 104.061L54.0529 104.082L15.0766 106.545C7.48334 107.025 3.63166 97.6825 9.16847 92.6606L9.4396 92.425L38.1729 68.3949C42.1086 65.1034 43.5037 59.6893 41.6927 54.9274L41.5075 54.4683L26.6773 19.8129C23.6066 12.6373 31.5776 5.76159 38.2249 9.85218L71.1635 30.122C75.4216 32.7422 80.8407 32.441 84.7747 29.4096L85.1512 29.107L114.529 4.53882Z" stroke="white" stroke-width="4"/>
</g>
<defs>
<filter id="filter0_d_10_954" x="0.546173" y="0.635239" width="166.369" height="161.461" filterUnits="userSpaceOnUse" color-interpolation-filters="sRGB">
<feFlood flood-opacity="0" result="BackgroundImageFix"/>
<feColorMatrix in="SourceAlpha" type="matrix" values="0 0 0 0 0 0 0 0 0 0 0 0 0 0 0 0 0 0 127 0" result="hardAlpha"/>
<feOffset dy="4"/>
<feGaussianBlur stdDeviation="2"/>
<feComposite in2="hardAlpha" operator="out"/>
<feColorMatrix type="matrix" values="0 0 0 0 0 0 0 0 0 0 0 0 0 0 0 0 0 0 0.61 0"/>
<feBlend mode="normal" in2="BackgroundImageFix" result="effect1_dropShadow_10_954"/>
<feBlend mode="normal" in="SourceGraphic" in2="effect1_dropShadow_10_954" result="shape"/>
</filter>
</defs>
</svg>
