<svg width="368" height="326" viewBox="0 0 368 326" fill="none" xmlns="http://www.w3.org/2000/svg">
<g filter="url(#filter0_d_13_1049)">
<path d="M182 0L207.448 53.0752L255.213 13.703L253.945 71.3041L315.766 52.4428L288.002 104.61L353.19 109.521L303.729 147.234L361.014 175.068L298.409 191.806L337.885 237.75L272.961 230.619L287.801 286.729L231.785 256.962L219.424 313.536L182 266.28L144.576 313.536L132.215 256.962L76.1987 286.729L91.0391 230.619L26.1154 237.75L65.5907 191.806L2.98605 175.068L60.2705 147.234L10.8098 109.521L75.9985 104.61L48.2339 52.4428L110.055 71.3041L108.787 13.703L156.552 53.0752L182 0Z" fill="#FFB81F"/>
<path d="M205.645 53.9404L206.749 56.2432L208.721 54.6182L253.116 18.0215L251.945 71.2598L251.885 74.0234L254.528 73.2168L311.732 55.7637L286.236 103.67L284.797 106.374L287.852 106.604L347.794 111.12L302.517 145.644L299.934 147.613L302.855 149.033L355.313 174.521L297.893 189.874L294.818 190.695L296.893 193.109L333.062 235.208L273.18 228.631L270.282 228.312L271.027 231.13L284.697 282.814L232.723 255.195L230.394 253.958L229.831 256.535L218.37 308.984L183.568 265.038L182 263.059L180.432 265.038L145.629 308.984L134.169 256.535L133.606 253.958L131.277 255.195L79.3018 282.814L92.9727 231.13L93.7178 228.312L90.8203 228.631L30.9365 235.208L67.1074 193.109L69.1816 190.695L66.1074 189.874L8.68555 174.521L61.1445 149.033L64.0664 147.613L61.4834 145.644L16.2051 111.12L76.1484 106.604L79.2031 106.374L77.7637 103.67L52.2666 55.7637L109.472 73.2168L112.115 74.0234L112.055 71.2598L110.883 18.0215L155.279 54.6182L157.251 56.2432L158.355 53.9404L182 4.62598L205.645 53.9404Z" stroke="white" stroke-width="4"/>
</g>
<path d="M115.145 130.32L114.441 138.562C114.064 138.458 113.693 138.387 113.328 138.348C112.964 138.309 112.592 138.289 112.215 138.289C111.29 138.289 110.405 138.406 109.559 138.641C108.725 138.875 107.983 139.233 107.332 139.715C106.694 140.197 106.18 140.809 105.789 141.551C105.411 142.28 105.223 143.146 105.223 144.148C105.223 144.878 105.327 145.516 105.535 146.062C105.757 146.596 106.062 147.046 106.453 147.41C106.857 147.762 107.339 148.029 107.898 148.211C108.471 148.393 109.103 148.484 109.793 148.484C110.275 148.484 110.77 148.439 111.277 148.348C111.785 148.243 112.293 148.107 112.801 147.938C113.309 147.768 113.797 147.573 114.266 147.352C114.734 147.13 115.171 146.896 115.574 146.648L115.262 155.828C114.754 156.089 114.207 156.323 113.621 156.531C113.035 156.727 112.43 156.896 111.805 157.039C111.193 157.195 110.574 157.312 109.949 157.391C109.337 157.469 108.751 157.508 108.191 157.508C106.342 157.508 104.656 157.163 103.133 156.473C101.622 155.783 100.32 154.845 99.2266 153.66C98.1458 152.462 97.306 151.076 96.707 149.5C96.1081 147.924 95.8086 146.245 95.8086 144.461C95.8086 142.326 96.1081 140.333 96.707 138.484C97.319 136.635 98.2109 135.034 99.3828 133.68C100.568 132.312 102.026 131.245 103.758 130.477C105.503 129.695 107.501 129.305 109.754 129.305C110.652 129.305 111.564 129.376 112.488 129.52C113.413 129.663 114.298 129.93 115.145 130.32ZM134.148 146.648L133.328 155.32L116.883 156.609L117.508 128.719H127.664L126.219 146.648H134.148ZM145.262 129.5L143.895 156.102L135.652 156.531L134.871 130.047L145.262 129.5ZM165.496 130.32L164.793 138.562C164.415 138.458 164.044 138.387 163.68 138.348C163.315 138.309 162.944 138.289 162.566 138.289C161.642 138.289 160.757 138.406 159.91 138.641C159.077 138.875 158.335 139.233 157.684 139.715C157.046 140.197 156.531 140.809 156.141 141.551C155.763 142.28 155.574 143.146 155.574 144.148C155.574 144.878 155.678 145.516 155.887 146.062C156.108 146.596 156.414 147.046 156.805 147.41C157.208 147.762 157.69 148.029 158.25 148.211C158.823 148.393 159.454 148.484 160.145 148.484C160.626 148.484 161.121 148.439 161.629 148.348C162.137 148.243 162.645 148.107 163.152 147.938C163.66 147.768 164.148 147.573 164.617 147.352C165.086 147.13 165.522 146.896 165.926 146.648L165.613 155.828C165.105 156.089 164.559 156.323 163.973 156.531C163.387 156.727 162.781 156.896 162.156 157.039C161.544 157.195 160.926 157.312 160.301 157.391C159.689 157.469 159.103 157.508 158.543 157.508C156.694 157.508 155.008 157.163 153.484 156.473C151.974 155.783 150.672 154.845 149.578 153.66C148.497 152.462 147.658 151.076 147.059 149.5C146.46 147.924 146.16 146.245 146.16 144.461C146.16 142.326 146.46 140.333 147.059 138.484C147.671 136.635 148.562 135.034 149.734 133.68C150.919 132.312 152.378 131.245 154.109 130.477C155.854 129.695 157.853 129.305 160.105 129.305C161.004 129.305 161.915 129.376 162.84 129.52C163.764 129.663 164.65 129.93 165.496 130.32ZM191.375 131.766L182.742 142.039L190.672 155.477L181.609 157.078L175.672 149.031L175.359 156.688L167.234 157L167.859 129.031L176.961 129.539L176.258 137.586L181.922 129.422L191.375 131.766ZM233.426 143.758C233.426 145.62 233.367 147.475 233.25 149.324C233.133 151.173 232.996 153.029 232.84 154.891L222.801 155.359C223.1 153.094 223.367 150.828 223.602 148.562C223.849 146.284 223.973 144.005 223.973 141.727C223.973 141.583 223.966 141.336 223.953 140.984C223.94 140.62 223.914 140.21 223.875 139.754C223.849 139.298 223.803 138.829 223.738 138.348C223.686 137.853 223.608 137.404 223.504 137C223.413 136.583 223.296 136.245 223.152 135.984C223.009 135.724 222.84 135.594 222.645 135.594C222.189 135.594 221.831 135.77 221.57 136.121C221.31 136.46 221.115 136.87 220.984 137.352C220.867 137.833 220.796 138.328 220.77 138.836C220.743 139.331 220.73 139.734 220.73 140.047C220.73 140.594 220.743 141.141 220.77 141.688C220.796 142.234 220.809 142.794 220.809 143.367C220.809 145.385 220.757 147.397 220.652 149.402C220.561 151.408 220.444 153.419 220.301 155.438L211.043 155.789C211.342 153.523 211.603 151.264 211.824 149.012C212.059 146.746 212.176 144.474 212.176 142.195C212.176 142.052 212.169 141.792 212.156 141.414C212.143 141.036 212.117 140.613 212.078 140.145C212.052 139.676 212.007 139.188 211.941 138.68C211.876 138.172 211.792 137.71 211.688 137.293C211.596 136.863 211.479 136.512 211.336 136.238C211.193 135.965 211.017 135.828 210.809 135.828C210.483 135.828 210.21 135.958 209.988 136.219C209.767 136.466 209.585 136.792 209.441 137.195C209.311 137.599 209.207 138.048 209.129 138.543C209.064 139.025 209.012 139.5 208.973 139.969C208.947 140.438 208.927 140.874 208.914 141.277C208.914 141.668 208.908 141.961 208.895 142.156L208.465 156.414H198.621C198.829 154.214 199.038 152.007 199.246 149.793C199.467 147.579 199.656 145.372 199.812 143.172C199.982 140.958 200.118 138.745 200.223 136.531C200.327 134.318 200.379 132.104 200.379 129.891L209.676 129.5L209.637 131.766C209.923 131.401 210.249 131.036 210.613 130.672C210.978 130.294 211.362 129.962 211.766 129.676C212.182 129.376 212.618 129.135 213.074 128.953C213.543 128.771 214.025 128.68 214.52 128.68C215.158 128.68 215.73 128.732 216.238 128.836C216.746 128.927 217.202 129.09 217.605 129.324C218.022 129.559 218.387 129.884 218.699 130.301C219.012 130.704 219.285 131.219 219.52 131.844C219.936 131.388 220.353 130.965 220.77 130.574C221.199 130.184 221.648 129.852 222.117 129.578C222.586 129.292 223.094 129.07 223.641 128.914C224.188 128.758 224.793 128.68 225.457 128.68C226.72 128.68 227.794 128.927 228.68 129.422C229.565 129.904 230.301 130.548 230.887 131.355C231.486 132.163 231.948 133.087 232.273 134.129C232.612 135.171 232.866 136.251 233.035 137.371C233.204 138.491 233.309 139.604 233.348 140.711C233.4 141.818 233.426 142.833 233.426 143.758ZM257.02 141.219C257.02 142.352 256.941 143.484 256.785 144.617C254.559 144.76 252.345 144.995 250.145 145.32C247.944 145.633 245.743 145.945 243.543 146.258C243.882 147.195 244.409 147.944 245.125 148.504C245.854 149.064 246.72 149.344 247.723 149.344C248.243 149.344 248.81 149.246 249.422 149.051C250.047 148.855 250.665 148.615 251.277 148.328C251.889 148.029 252.475 147.71 253.035 147.371C253.595 147.033 254.077 146.727 254.48 146.453L253.543 155.32C253.035 155.711 252.482 156.043 251.883 156.316C251.297 156.59 250.685 156.811 250.047 156.98C249.409 157.15 248.764 157.273 248.113 157.352C247.462 157.43 246.824 157.469 246.199 157.469C244.91 157.469 243.732 157.293 242.664 156.941C241.596 156.59 240.626 156.102 239.754 155.477C238.895 154.839 238.139 154.09 237.488 153.23C236.837 152.371 236.297 151.434 235.867 150.418C235.438 149.402 235.112 148.328 234.891 147.195C234.669 146.062 234.559 144.917 234.559 143.758C234.559 142.547 234.669 141.336 234.891 140.125C235.112 138.914 235.444 137.749 235.887 136.629C236.342 135.509 236.909 134.474 237.586 133.523C238.276 132.56 239.077 131.72 239.988 131.004C240.9 130.288 241.928 129.728 243.074 129.324C244.233 128.921 245.509 128.719 246.902 128.719C248.061 128.719 249.116 128.882 250.066 129.207C251.03 129.52 251.883 129.962 252.625 130.535C253.38 131.095 254.031 131.766 254.578 132.547C255.138 133.328 255.594 134.188 255.945 135.125C256.31 136.049 256.577 137.033 256.746 138.074C256.928 139.103 257.02 140.151 257.02 141.219ZM249.207 140.203C249.207 139.839 249.168 139.467 249.09 139.09C249.012 138.699 248.882 138.348 248.699 138.035C248.53 137.723 248.302 137.469 248.016 137.273C247.729 137.065 247.371 136.961 246.941 136.961C246.421 136.961 245.958 137.104 245.555 137.391C245.164 137.664 244.826 138.016 244.539 138.445C244.253 138.862 244.018 139.318 243.836 139.812C243.654 140.307 243.517 140.763 243.426 141.18L249.207 140.633V140.203ZM267.879 127.977L266.277 148.523H259.051L258.309 127.977H267.879ZM266.59 154.539C266.59 155.112 266.479 155.646 266.258 156.141C266.036 156.635 265.737 157.065 265.359 157.43C264.995 157.807 264.565 158.1 264.07 158.309C263.576 158.53 263.048 158.641 262.488 158.641C261.915 158.641 261.382 158.53 260.887 158.309C260.392 158.1 259.956 157.807 259.578 157.43C259.214 157.065 258.921 156.635 258.699 156.141C258.491 155.646 258.387 155.112 258.387 154.539C258.387 153.979 258.491 153.445 258.699 152.938C258.921 152.43 259.214 151.993 259.578 151.629C259.956 151.251 260.392 150.952 260.887 150.73C261.382 150.509 261.915 150.398 262.488 150.398C263.048 150.398 263.576 150.509 264.07 150.73C264.565 150.952 264.995 151.251 265.359 151.629C265.737 151.993 266.036 152.43 266.258 152.938C266.479 153.445 266.59 153.979 266.59 154.539Z" fill="#FFFDF8"/>
<path d="M98.6585 174.26C98.6585 174.893 98.6885 175.523 98.7485 176.15C98.8152 176.777 98.9352 177.42 99.1085 178.08C99.2819 178.733 99.5285 179.42 99.8485 180.14C100.175 180.86 100.592 181.63 101.099 182.45L100.669 182.74C99.9952 181.873 99.4285 181.087 98.9685 180.38C98.5152 179.673 98.1519 178.997 97.8785 178.35C97.6119 177.703 97.4185 177.05 97.2985 176.39C97.1852 175.73 97.1285 175.02 97.1285 174.26C97.1285 173.507 97.1852 172.8 97.2985 172.14C97.4185 171.48 97.6119 170.827 97.8785 170.18C98.1519 169.533 98.5152 168.857 98.9685 168.15C99.4285 167.437 99.9952 166.65 100.669 165.79L101.099 166.08C100.592 166.9 100.175 167.67 99.8485 168.39C99.5285 169.103 99.2819 169.79 99.1085 170.45C98.9352 171.103 98.8152 171.747 98.7485 172.38C98.6885 173.007 98.6585 173.633 98.6585 174.26ZM105.853 171.22C106.5 171.22 107.06 171.363 107.533 171.65C108.013 171.937 108.393 172.357 108.673 172.91C108.96 173.457 109.137 174.127 109.203 174.92H103.063L103.083 174.25L108.233 174.02L107.553 174.44C107.507 173.953 107.41 173.527 107.263 173.16C107.123 172.793 106.923 172.51 106.663 172.31C106.41 172.103 106.087 172 105.693 172C105.227 172 104.817 172.13 104.463 172.39C104.11 172.643 103.833 173.02 103.633 173.52C103.44 174.013 103.343 174.62 103.343 175.34C103.343 176.093 103.487 176.743 103.773 177.29C104.067 177.837 104.473 178.257 104.993 178.55C105.513 178.843 106.12 178.99 106.813 178.99C107.073 178.99 107.327 178.957 107.573 178.89C107.82 178.823 108.063 178.723 108.303 178.59C108.55 178.45 108.787 178.28 109.013 178.08L109.263 178.35C108.923 178.77 108.577 179.12 108.223 179.4C107.877 179.673 107.51 179.873 107.123 180C106.737 180.133 106.317 180.2 105.863 180.2C105.09 180.2 104.4 180.013 103.793 179.64C103.187 179.26 102.707 178.743 102.353 178.09C102.007 177.43 101.833 176.677 101.833 175.83C101.833 174.983 101.993 174.213 102.313 173.52C102.64 172.82 103.103 172.263 103.703 171.85C104.303 171.43 105.02 171.22 105.853 171.22ZM117.938 179.11L119.178 179.57V180H115.108V179.57L116.348 179.16L114.158 176.23L113.928 175.99L111.198 172.31L109.948 171.84V171.42H114.028V171.84L112.788 172.26L114.768 174.93L115.008 175.2L117.938 179.11ZM114.508 176L111.868 179.21L113.068 179.57V180H109.828V179.57L110.898 179.21L114.098 175.45L114.458 175.14L116.868 172.21L115.698 171.84V171.42H118.898V171.84L117.818 172.21L114.858 175.69L114.508 176ZM124.356 171.22C124.903 171.22 125.34 171.283 125.666 171.41C125.993 171.53 126.23 171.68 126.376 171.86C126.523 172.04 126.596 172.22 126.596 172.4C126.596 172.587 126.556 172.75 126.476 172.89C126.403 173.03 126.296 173.14 126.156 173.22C126.016 173.293 125.856 173.33 125.676 173.33C125.483 173.33 125.31 173.287 125.156 173.2C125.01 173.113 124.87 173.01 124.736 172.89C124.603 172.763 124.47 172.637 124.336 172.51C124.21 172.383 124.066 172.277 123.906 172.19C123.753 172.103 123.576 172.06 123.376 172.06C123.01 172.06 122.653 172.17 122.306 172.39C121.96 172.61 121.676 172.947 121.456 173.4C121.236 173.853 121.126 174.423 121.126 175.11C121.126 175.91 121.26 176.6 121.526 177.18C121.793 177.76 122.17 178.207 122.656 178.52C123.143 178.833 123.72 178.99 124.386 178.99C124.753 178.99 125.113 178.913 125.466 178.76C125.826 178.6 126.17 178.373 126.496 178.08L126.736 178.35C126.41 178.77 126.08 179.12 125.746 179.4C125.413 179.673 125.056 179.873 124.676 180C124.303 180.133 123.896 180.2 123.456 180.2C122.71 180.2 122.046 180.017 121.466 179.65C120.893 179.277 120.443 178.77 120.116 178.13C119.79 177.483 119.626 176.757 119.626 175.95C119.626 175.31 119.73 174.707 119.936 174.14C120.15 173.567 120.453 173.063 120.846 172.63C121.246 172.19 121.74 171.847 122.326 171.6C122.92 171.347 123.596 171.22 124.356 171.22ZM131.888 171.22C132.535 171.22 133.095 171.363 133.568 171.65C134.048 171.937 134.428 172.357 134.708 172.91C134.995 173.457 135.172 174.127 135.238 174.92H129.098L129.118 174.25L134.268 174.02L133.588 174.44C133.542 173.953 133.445 173.527 133.298 173.16C133.158 172.793 132.958 172.51 132.698 172.31C132.445 172.103 132.122 172 131.728 172C131.262 172 130.852 172.13 130.498 172.39C130.145 172.643 129.868 173.02 129.668 173.52C129.475 174.013 129.378 174.62 129.378 175.34C129.378 176.093 129.522 176.743 129.808 177.29C130.102 177.837 130.508 178.257 131.028 178.55C131.548 178.843 132.155 178.99 132.848 178.99C133.108 178.99 133.362 178.957 133.608 178.89C133.855 178.823 134.098 178.723 134.338 178.59C134.585 178.45 134.822 178.28 135.048 178.08L135.298 178.35C134.958 178.77 134.612 179.12 134.258 179.4C133.912 179.673 133.545 179.873 133.158 180C132.772 180.133 132.352 180.2 131.898 180.2C131.125 180.2 130.435 180.013 129.828 179.64C129.222 179.26 128.742 178.743 128.388 178.09C128.042 177.43 127.868 176.677 127.868 175.83C127.868 174.983 128.028 174.213 128.348 173.52C128.675 172.82 129.138 172.263 129.738 171.85C130.338 171.43 131.055 171.22 131.888 171.22ZM139.246 179.16L140.796 179.63V180H136.256V179.63L137.776 179.16V167.78C137.69 167.68 137.576 167.577 137.436 167.47C137.296 167.363 137.123 167.257 136.916 167.15C136.716 167.037 136.486 166.927 136.226 166.82V166.62L139.146 165.79H139.346L139.246 167.39V179.16ZM148.206 168.18C147.853 168.18 147.563 168.067 147.336 167.84C147.11 167.607 146.996 167.32 146.996 166.98C146.996 166.647 147.11 166.367 147.336 166.14C147.563 165.907 147.853 165.79 148.206 165.79C148.56 165.79 148.846 165.907 149.066 166.14C149.293 166.367 149.406 166.647 149.406 166.98C149.406 167.32 149.293 167.607 149.066 167.84C148.846 168.067 148.56 168.18 148.206 168.18ZM149.106 171.21L149.046 172.84V179.16L150.596 179.63V180H146.056V179.63L147.576 179.16V173.08C147.503 173 147.386 172.913 147.226 172.82C147.073 172.72 146.896 172.623 146.696 172.53C146.503 172.437 146.303 172.357 146.096 172.29V171.99L148.926 171.21H149.106ZM153.968 177.59C153.968 178.037 154.101 178.373 154.368 178.6C154.641 178.827 155.028 178.94 155.528 178.94C155.761 178.94 156.015 178.917 156.288 178.87C156.568 178.823 156.871 178.75 157.198 178.65V179.12C156.798 179.393 156.451 179.607 156.158 179.76C155.865 179.913 155.601 180.017 155.368 180.07C155.135 180.13 154.901 180.16 154.668 180.16C154.235 180.16 153.855 180.08 153.528 179.92C153.201 179.753 152.945 179.507 152.758 179.18C152.578 178.853 152.488 178.453 152.488 177.98V172.76L151.408 172.01V171.83C151.548 171.73 151.688 171.627 151.828 171.52C151.975 171.407 152.121 171.293 152.268 171.18C152.415 171.067 152.561 170.953 152.708 170.84C152.861 170.72 153.018 170.6 153.178 170.48C153.338 170.353 153.498 170.227 153.658 170.1H153.968V171.72V177.59ZM153.388 172.34V171.42H156.908L156.748 172.34H153.388ZM160.023 168.18C159.669 168.18 159.379 168.067 159.153 167.84C158.926 167.607 158.813 167.32 158.813 166.98C158.813 166.647 158.926 166.367 159.153 166.14C159.379 165.907 159.669 165.79 160.023 165.79C160.376 165.79 160.663 165.907 160.883 166.14C161.109 166.367 161.223 166.647 161.223 166.98C161.223 167.32 161.109 167.607 160.883 167.84C160.663 168.067 160.376 168.18 160.023 168.18ZM160.923 171.21L160.863 172.84V179.16L162.413 179.63V180H157.873V179.63L159.393 179.16V173.08C159.319 173 159.203 172.913 159.043 172.82C158.889 172.72 158.713 172.623 158.513 172.53C158.319 172.437 158.119 172.357 157.913 172.29V171.99L160.743 171.21H160.923ZM166.194 173.05V179.16L167.734 179.63V180H163.204V179.63L164.724 179.16V173.19C164.618 173.083 164.458 172.977 164.244 172.87C164.031 172.757 163.698 172.627 163.244 172.48V172.23L165.704 171.21H165.904L166.194 173.05ZM168.974 179.63L170.514 179.16V174.37C170.514 174.003 170.438 173.69 170.284 173.43C170.131 173.163 169.904 172.96 169.604 172.82C169.304 172.673 168.934 172.6 168.494 172.6C167.968 172.6 167.478 172.697 167.024 172.89C166.578 173.083 166.264 173.317 166.084 173.59L165.704 173.27C166.064 172.89 166.404 172.57 166.724 172.31C167.044 172.043 167.354 171.83 167.654 171.67C167.961 171.51 168.271 171.397 168.584 171.33C168.904 171.257 169.241 171.22 169.594 171.22C170.408 171.22 171.011 171.48 171.404 172C171.798 172.513 171.994 173.33 171.994 174.45V179.16L173.524 179.63V180H168.974V179.63ZM178.47 171.22C179.117 171.22 179.677 171.363 180.15 171.65C180.63 171.937 181.01 172.357 181.29 172.91C181.577 173.457 181.754 174.127 181.82 174.92H175.68L175.7 174.25L180.85 174.02L180.17 174.44C180.124 173.953 180.027 173.527 179.88 173.16C179.74 172.793 179.54 172.51 179.28 172.31C179.027 172.103 178.704 172 178.31 172C177.844 172 177.434 172.13 177.08 172.39C176.727 172.643 176.45 173.02 176.25 173.52C176.057 174.013 175.96 174.62 175.96 175.34C175.96 176.093 176.104 176.743 176.39 177.29C176.684 177.837 177.09 178.257 177.61 178.55C178.13 178.843 178.737 178.99 179.43 178.99C179.69 178.99 179.944 178.957 180.19 178.89C180.437 178.823 180.68 178.723 180.92 178.59C181.167 178.45 181.404 178.28 181.63 178.08L181.88 178.35C181.54 178.77 181.194 179.12 180.84 179.4C180.494 179.673 180.127 179.873 179.74 180C179.354 180.133 178.934 180.2 178.48 180.2C177.707 180.2 177.017 180.013 176.41 179.64C175.804 179.26 175.324 178.743 174.97 178.09C174.624 177.43 174.45 176.677 174.45 175.83C174.45 174.983 174.61 174.213 174.93 173.52C175.257 172.82 175.72 172.263 176.32 171.85C176.92 171.43 177.637 171.22 178.47 171.22ZM188.929 171.28C189.269 171.28 189.515 171.363 189.669 171.53C189.822 171.69 189.899 171.9 189.899 172.16C189.899 172.46 189.799 172.703 189.599 172.89C189.405 173.07 189.142 173.16 188.809 173.16C188.662 173.16 188.512 173.133 188.359 173.08C188.212 173.027 188.055 172.973 187.889 172.92C187.729 172.867 187.552 172.84 187.359 172.84C187.205 172.84 187.035 172.863 186.849 172.91C186.662 172.95 186.479 173.013 186.299 173.1C186.119 173.18 185.962 173.273 185.829 173.38L185.619 173.03C186.019 172.723 186.382 172.463 186.709 172.25C187.042 172.03 187.342 171.85 187.609 171.71C187.882 171.563 188.129 171.457 188.349 171.39C188.569 171.317 188.762 171.28 188.929 171.28ZM186.019 173.05V179.16L187.569 179.63V180H183.029V179.63L184.549 179.16V173.19C184.462 173.097 184.349 173.013 184.209 172.94C184.075 172.867 183.912 172.793 183.719 172.72C183.532 172.64 183.315 172.56 183.069 172.48V172.23L185.719 171.21H185.919L186.019 173.05ZM195.893 174.52L196.053 175.21C195.26 175.397 194.61 175.583 194.103 175.77C193.603 175.957 193.213 176.15 192.933 176.35C192.653 176.543 192.457 176.75 192.343 176.97C192.237 177.19 192.183 177.43 192.183 177.69C192.183 178.15 192.317 178.5 192.583 178.74C192.857 178.98 193.19 179.1 193.583 179.1C193.897 179.1 194.183 179.02 194.443 178.86C194.703 178.7 194.913 178.49 195.073 178.23C195.233 177.97 195.313 177.687 195.313 177.38V173.75C195.313 173.263 195.187 172.877 194.933 172.59C194.687 172.297 194.277 172.15 193.703 172.15C193.497 172.15 193.26 172.183 192.993 172.25C192.733 172.31 192.483 172.403 192.243 172.53L192.753 172.07C192.733 172.257 192.703 172.447 192.663 172.64C192.63 172.827 192.587 172.997 192.533 173.15C192.487 173.297 192.423 173.41 192.343 173.49C192.243 173.603 192.11 173.687 191.943 173.74C191.783 173.793 191.623 173.82 191.463 173.82C191.257 173.82 191.093 173.773 190.973 173.68C190.853 173.58 190.793 173.457 190.793 173.31C190.793 173.097 190.897 172.877 191.103 172.65C191.31 172.417 191.58 172.197 191.913 171.99C192.253 171.783 192.63 171.617 193.043 171.49C193.463 171.363 193.887 171.3 194.313 171.3C194.9 171.3 195.373 171.39 195.733 171.57C196.1 171.75 196.367 172.013 196.533 172.36C196.7 172.7 196.783 173.123 196.783 173.63V178.25C196.783 178.457 196.813 178.63 196.873 178.77C196.933 178.903 197.02 179.007 197.133 179.08C197.253 179.147 197.4 179.18 197.573 179.18C197.727 179.18 197.893 179.15 198.073 179.09C198.253 179.023 198.427 178.94 198.593 178.84V179.29C198.313 179.603 198.02 179.83 197.713 179.97C197.407 180.11 197.123 180.18 196.863 180.18C196.537 180.18 196.257 180.11 196.023 179.97C195.797 179.823 195.623 179.613 195.503 179.34C195.383 179.067 195.323 178.743 195.323 178.37L195.383 178.28C195.297 178.653 195.133 178.987 194.893 179.28C194.66 179.567 194.377 179.793 194.043 179.96C193.717 180.12 193.363 180.2 192.983 180.2C192.31 180.2 191.753 180.013 191.313 179.64C190.88 179.26 190.663 178.717 190.663 178.01C190.663 177.637 190.737 177.297 190.883 176.99C191.037 176.683 191.303 176.393 191.683 176.12C192.07 175.847 192.603 175.58 193.283 175.32C193.963 175.06 194.833 174.793 195.893 174.52ZM204.925 171.28C205.265 171.28 205.511 171.363 205.665 171.53C205.818 171.69 205.895 171.9 205.895 172.16C205.895 172.46 205.795 172.703 205.595 172.89C205.401 173.07 205.138 173.16 204.805 173.16C204.658 173.16 204.508 173.133 204.355 173.08C204.208 173.027 204.051 172.973 203.885 172.92C203.725 172.867 203.548 172.84 203.355 172.84C203.201 172.84 203.031 172.863 202.845 172.91C202.658 172.95 202.475 173.013 202.295 173.1C202.115 173.18 201.958 173.273 201.825 173.38L201.615 173.03C202.015 172.723 202.378 172.463 202.705 172.25C203.038 172.03 203.338 171.85 203.605 171.71C203.878 171.563 204.125 171.457 204.345 171.39C204.565 171.317 204.758 171.28 204.925 171.28ZM202.015 173.05V179.16L203.565 179.63V180H199.025V179.63L200.545 179.16V173.19C200.458 173.097 200.345 173.013 200.205 172.94C200.071 172.867 199.908 172.793 199.715 172.72C199.528 172.64 199.311 172.56 199.065 172.48V172.23L201.715 171.21H201.915L202.015 173.05ZM211.883 178.51L211.113 180.37L207.423 172.31L206.183 171.84V171.42H210.323V171.84L209.013 172.26L211.883 178.51ZM208.313 185.28C207.966 185.28 207.679 185.183 207.453 184.99C207.226 184.797 207.113 184.537 207.113 184.21C207.113 184.037 207.146 183.883 207.213 183.75C207.286 183.623 207.383 183.52 207.503 183.44C207.623 183.367 207.746 183.33 207.873 183.33C208.013 183.33 208.136 183.36 208.243 183.42C208.356 183.48 208.473 183.54 208.593 183.6C208.719 183.66 208.859 183.69 209.013 183.69C209.159 183.69 209.293 183.66 209.413 183.6C209.539 183.54 209.659 183.43 209.773 183.27C209.893 183.11 210.009 182.883 210.123 182.59L211.283 179.65L211.763 178.37L214.013 172.21L212.693 171.84V171.42H215.943V171.84L214.883 172.21L211.073 182.18C210.766 182.98 210.469 183.603 210.183 184.05C209.903 184.503 209.609 184.82 209.303 185C209.003 185.187 208.673 185.28 208.313 185.28ZM223.966 171.22C224.346 171.22 224.69 171.257 224.996 171.33C225.303 171.403 225.65 171.537 226.036 171.73L226.196 174.1H225.766L224.776 171.66L225.456 172.5C225.21 172.3 224.973 172.153 224.746 172.06C224.52 171.96 224.266 171.91 223.986 171.91C223.486 171.91 223.09 172.02 222.796 172.24C222.503 172.46 222.356 172.77 222.356 173.17C222.356 173.497 222.443 173.763 222.616 173.97C222.796 174.177 223.033 174.357 223.326 174.51C223.626 174.663 223.95 174.817 224.296 174.97C224.556 175.09 224.813 175.223 225.066 175.37C225.32 175.517 225.543 175.693 225.736 175.9C225.936 176.1 226.096 176.34 226.216 176.62C226.343 176.9 226.406 177.237 226.406 177.63C226.406 178.177 226.27 178.643 225.996 179.03C225.723 179.41 225.353 179.7 224.886 179.9C224.42 180.1 223.886 180.2 223.286 180.2C222.9 180.2 222.553 180.17 222.246 180.11C221.94 180.057 221.633 179.963 221.326 179.83L220.876 177.39H221.336L222.686 179.91L221.496 179.14C221.75 179.26 221.96 179.35 222.126 179.41C222.3 179.47 222.456 179.51 222.596 179.53C222.743 179.55 222.89 179.56 223.036 179.56C223.67 179.56 224.17 179.433 224.536 179.18C224.91 178.92 225.096 178.537 225.096 178.03C225.096 177.75 225.033 177.517 224.906 177.33C224.78 177.143 224.606 176.98 224.386 176.84C224.173 176.7 223.94 176.573 223.686 176.46C223.433 176.34 223.18 176.22 222.926 176.1C222.593 175.933 222.29 175.747 222.016 175.54C221.75 175.327 221.536 175.063 221.376 174.75C221.216 174.43 221.136 174.037 221.136 173.57C221.136 173.077 221.26 172.657 221.506 172.31C221.753 171.957 222.09 171.687 222.516 171.5C222.95 171.313 223.433 171.22 223.966 171.22ZM233.305 179.63L234.845 179.16V174.37C234.845 174.003 234.768 173.69 234.615 173.43C234.462 173.163 234.235 172.96 233.935 172.82C233.635 172.673 233.268 172.6 232.835 172.6C232.308 172.6 231.818 172.697 231.365 172.89C230.912 173.083 230.598 173.317 230.425 173.59L230.045 173.27C230.405 172.89 230.742 172.57 231.055 172.31C231.375 172.043 231.685 171.83 231.985 171.67C232.292 171.51 232.605 171.397 232.925 171.33C233.245 171.257 233.578 171.22 233.925 171.22C234.738 171.22 235.342 171.48 235.735 172C236.128 172.513 236.325 173.33 236.325 174.45V179.16L237.855 179.63V180H233.305V179.63ZM232.075 180H227.535V179.63L229.055 179.16V167.78C228.968 167.68 228.855 167.577 228.715 167.47C228.575 167.363 228.402 167.257 228.195 167.15C227.995 167.037 227.765 166.927 227.505 166.82V166.62L230.425 165.79H230.625L230.525 167.56V179.16L232.075 179.63V180ZM242.787 171.22C243.433 171.22 243.993 171.363 244.467 171.65C244.947 171.937 245.327 172.357 245.607 172.91C245.893 173.457 246.07 174.127 246.137 174.92H239.997L240.017 174.25L245.167 174.02L244.487 174.44C244.44 173.953 244.343 173.527 244.197 173.16C244.057 172.793 243.857 172.51 243.597 172.31C243.343 172.103 243.02 172 242.627 172C242.16 172 241.75 172.13 241.397 172.39C241.043 172.643 240.767 173.02 240.567 173.52C240.373 174.013 240.277 174.62 240.277 175.34C240.277 176.093 240.42 176.743 240.707 177.29C241 177.837 241.407 178.257 241.927 178.55C242.447 178.843 243.053 178.99 243.747 178.99C244.007 178.99 244.26 178.957 244.507 178.89C244.753 178.823 244.997 178.723 245.237 178.59C245.483 178.45 245.72 178.28 245.947 178.08L246.197 178.35C245.857 178.77 245.51 179.12 245.157 179.4C244.81 179.673 244.443 179.873 244.057 180C243.67 180.133 243.25 180.2 242.797 180.2C242.023 180.2 241.333 180.013 240.727 179.64C240.12 179.26 239.64 178.743 239.287 178.09C238.94 177.43 238.767 176.677 238.767 175.83C238.767 174.983 238.927 174.213 239.247 173.52C239.573 172.82 240.037 172.263 240.637 171.85C241.237 171.43 241.953 171.22 242.787 171.22ZM251.615 171.22C252.262 171.22 252.822 171.363 253.295 171.65C253.775 171.937 254.155 172.357 254.435 172.91C254.722 173.457 254.898 174.127 254.965 174.92H248.825L248.845 174.25L253.995 174.02L253.315 174.44C253.268 173.953 253.172 173.527 253.025 173.16C252.885 172.793 252.685 172.51 252.425 172.31C252.172 172.103 251.848 172 251.455 172C250.988 172 250.578 172.13 250.225 172.39C249.872 172.643 249.595 173.02 249.395 173.52C249.202 174.013 249.105 174.62 249.105 175.34C249.105 176.093 249.248 176.743 249.535 177.29C249.828 177.837 250.235 178.257 250.755 178.55C251.275 178.843 251.882 178.99 252.575 178.99C252.835 178.99 253.088 178.957 253.335 178.89C253.582 178.823 253.825 178.723 254.065 178.59C254.312 178.45 254.548 178.28 254.775 178.08L255.025 178.35C254.685 178.77 254.338 179.12 253.985 179.4C253.638 179.673 253.272 179.873 252.885 180C252.498 180.133 252.078 180.2 251.625 180.2C250.852 180.2 250.162 180.013 249.555 179.64C248.948 179.26 248.468 178.743 248.115 178.09C247.768 177.43 247.595 176.677 247.595 175.83C247.595 174.983 247.755 174.213 248.075 173.52C248.402 172.82 248.865 172.263 249.465 171.85C250.065 171.43 250.782 171.22 251.615 171.22ZM258.753 177.59C258.753 178.037 258.886 178.373 259.153 178.6C259.426 178.827 259.813 178.94 260.313 178.94C260.546 178.94 260.8 178.917 261.073 178.87C261.353 178.823 261.656 178.75 261.983 178.65V179.12C261.583 179.393 261.236 179.607 260.943 179.76C260.65 179.913 260.386 180.017 260.153 180.07C259.92 180.13 259.686 180.16 259.453 180.16C259.02 180.16 258.64 180.08 258.313 179.92C257.986 179.753 257.73 179.507 257.543 179.18C257.363 178.853 257.273 178.453 257.273 177.98V172.76L256.193 172.01V171.83C256.333 171.73 256.473 171.627 256.613 171.52C256.76 171.407 256.906 171.293 257.053 171.18C257.2 171.067 257.346 170.953 257.493 170.84C257.646 170.72 257.803 170.6 257.963 170.48C258.123 170.353 258.283 170.227 258.443 170.1H258.753V171.72V177.59ZM258.173 172.34V171.42H261.693L261.533 172.34H258.173ZM265.178 174.26C265.178 173.633 265.145 173.007 265.078 172.38C265.011 171.747 264.891 171.103 264.718 170.45C264.551 169.797 264.308 169.11 263.988 168.39C263.668 167.67 263.251 166.9 262.738 166.08L263.168 165.79C263.848 166.65 264.415 167.437 264.868 168.15C265.321 168.857 265.681 169.533 265.948 170.18C266.221 170.827 266.415 171.48 266.528 172.14C266.648 172.8 266.708 173.507 266.708 174.26C266.708 175.02 266.648 175.73 266.528 176.39C266.415 177.05 266.221 177.703 265.948 178.35C265.681 178.997 265.321 179.673 264.868 180.38C264.415 181.087 263.848 181.873 263.168 182.74L262.738 182.45C263.251 181.63 263.668 180.857 263.988 180.13C264.308 179.41 264.551 178.723 264.718 178.07C264.891 177.417 265.011 176.777 265.078 176.15C265.145 175.523 265.178 174.893 265.178 174.26Z" fill="#FFFDF8"/>
<defs>
<filter id="filter0_d_13_1049" x="0.986084" y="0" width="366.028" height="325.536" filterUnits="userSpaceOnUse" color-interpolation-filters="sRGB">
<feFlood flood-opacity="0" result="BackgroundImageFix"/>
<feColorMatrix in="SourceAlpha" type="matrix" values="0 0 0 0 0 0 0 0 0 0 0 0 0 0 0 0 0 0 127 0" result="hardAlpha"/>
<feOffset dx="2" dy="8"/>
<feGaussianBlur stdDeviation="2"/>
<feComposite in2="hardAlpha" operator="out"/>
<feColorMatrix type="matrix" values="0 0 0 0 0 0 0 0 0 0 0 0 0 0 0 0 0 0 1 0"/>
<feBlend mode="normal" in2="BackgroundImageFix" result="effect1_dropShadow_13_1049"/>
<feBlend mode="normal" in="SourceGraphic" in2="effect1_dropShadow_13_1049" result="shape"/>
</filter>
</defs>
</svg>
