<svg width="116" height="120" viewBox="0 0 116 120" fill="none" xmlns="http://www.w3.org/2000/svg">
<g filter="url(#filter0_d_53_31)">
<circle cx="58" cy="54" r="50" fill="#004009"/>
<circle cx="58" cy="54" r="52" stroke="white" stroke-width="4" stroke-miterlimit="2.3662" stroke-linejoin="round"/>
</g>
<path d="M49.7804 34C49.7804 34.8919 49.6241 35.6634 49.3116 36.3145C49.0056 36.959 48.5824 37.4928 48.0421 37.916C47.5082 38.3327 46.88 38.6419 46.1573 38.8438C45.4412 39.0391 44.6697 39.1367 43.8429 39.1367C43.5239 39.1367 43.1723 39.0944 42.7882 39.0098C42.4106 38.9251 42.0265 38.821 41.6358 38.6973C41.2452 38.5671 40.8676 38.4303 40.503 38.2871C40.1449 38.1374 39.8259 37.9974 39.546 37.8672L39.9757 34.0391C40.5291 34.3711 41.141 34.625 41.8116 34.8008C42.4887 34.9701 43.1528 35.0547 43.8038 35.0547C43.9275 35.0547 44.0772 35.0514 44.253 35.0449C44.4288 35.0319 44.5948 35.0026 44.7511 34.957C44.9138 34.9049 45.0505 34.8301 45.1612 34.7324C45.2719 34.6348 45.3272 34.4948 45.3272 34.3125C45.3272 34.1888 45.2882 34.0846 45.21 34C45.1319 33.9089 45.031 33.8372 44.9073 33.7852C44.7836 33.7266 44.6436 33.6842 44.4874 33.6582C44.3311 33.6257 44.1781 33.6029 44.0284 33.5898C43.8787 33.5768 43.7387 33.5703 43.6085 33.5703C43.4783 33.5703 43.3741 33.5703 43.296 33.5703C42.7361 33.5703 42.225 33.4824 41.7628 33.3066C41.3071 33.1309 40.9132 32.8835 40.5811 32.5645C40.2556 32.2389 40.0017 31.8483 39.8194 31.3926C39.6371 30.9303 39.546 30.4193 39.546 29.8594C39.546 29.0911 39.699 28.4043 40.005 27.7988C40.3175 27.1868 40.7309 26.6693 41.2452 26.2461C41.766 25.8164 42.3617 25.4876 43.0323 25.2598C43.7029 25.0319 44.3962 24.918 45.1124 24.918C45.4314 24.918 45.7602 24.931 46.0987 24.957C46.4373 24.9766 46.7725 25.0156 47.1046 25.0742C47.4431 25.1328 47.7719 25.2077 48.0909 25.2988C48.4099 25.39 48.7127 25.5039 48.9991 25.6406L48.628 29.6055C48.1853 29.4557 47.7198 29.332 47.2315 29.2344C46.7498 29.1302 46.2778 29.0781 45.8155 29.0781C45.7309 29.0781 45.6202 29.0814 45.4835 29.0879C45.3533 29.0879 45.2133 29.0977 45.0636 29.1172C44.9203 29.1302 44.7739 29.153 44.6241 29.1855C44.4744 29.2181 44.3409 29.2637 44.2237 29.3223C44.1065 29.3743 44.0121 29.446 43.9405 29.5371C43.8689 29.6283 43.8364 29.7357 43.8429 29.8594C43.8494 30.0026 43.9015 30.1133 43.9991 30.1914C44.1033 30.2695 44.2335 30.3281 44.3897 30.3672C44.5525 30.3997 44.7283 30.416 44.9171 30.416C45.1124 30.416 45.3044 30.4128 45.4933 30.4062C45.6821 30.3932 45.8578 30.3835 46.0206 30.377C46.1834 30.3639 46.3168 30.3607 46.421 30.3672C46.9418 30.3997 47.4106 30.5104 47.8272 30.6992C48.2439 30.888 48.5955 31.1387 48.8819 31.4512C49.1749 31.7637 49.3962 32.138 49.546 32.5742C49.7022 33.0039 49.7804 33.4792 49.7804 34ZM61.3136 31.1094C61.3136 31.6758 61.2745 32.2422 61.1964 32.8086C60.0831 32.8802 58.9763 32.9974 57.8761 33.1602C56.7758 33.3164 55.6755 33.4727 54.5753 33.6289C54.7446 34.0977 55.0082 34.472 55.3663 34.752C55.7309 35.0319 56.1638 35.1719 56.6651 35.1719C56.9255 35.1719 57.2087 35.123 57.5147 35.0254C57.8272 34.9277 58.1365 34.8073 58.4425 34.6641C58.7485 34.5143 59.0414 34.3548 59.3214 34.1855C59.6013 34.0163 59.8422 33.8633 60.044 33.7266L59.5753 38.1602C59.3214 38.3555 59.0447 38.5215 58.7452 38.6582C58.4522 38.7949 58.1462 38.9056 57.8272 38.9902C57.5082 39.0749 57.186 39.1367 56.8604 39.1758C56.5349 39.2148 56.2159 39.2344 55.9034 39.2344C55.2589 39.2344 54.6697 39.1465 54.1358 38.9707C53.602 38.7949 53.1169 38.5508 52.6808 38.2383C52.2511 37.9193 51.8735 37.5449 51.5479 37.1152C51.2224 36.6855 50.9522 36.2168 50.7374 35.709C50.5225 35.2012 50.3598 34.6641 50.2491 34.0977C50.1384 33.5312 50.0831 32.9583 50.0831 32.3789C50.0831 31.7734 50.1384 31.168 50.2491 30.5625C50.3598 29.957 50.5258 29.3743 50.7472 28.8145C50.975 28.2546 51.2582 27.737 51.5968 27.2617C51.9418 26.7799 52.3422 26.36 52.7979 26.002C53.2537 25.6439 53.768 25.3639 54.3409 25.1621C54.9203 24.9603 55.5584 24.8594 56.255 24.8594C56.8344 24.8594 57.3617 24.9408 57.837 25.1035C58.3188 25.2598 58.7452 25.4811 59.1163 25.7676C59.4939 26.0475 59.8194 26.3828 60.0929 26.7734C60.3728 27.1641 60.6007 27.5938 60.7765 28.0625C60.9587 28.5247 61.0922 29.0163 61.1768 29.5371C61.268 30.0514 61.3136 30.5755 61.3136 31.1094ZM57.4073 30.6016C57.4073 30.4193 57.3878 30.2337 57.3487 30.0449C57.3097 29.8496 57.2446 29.6738 57.1534 29.5176C57.0688 29.3613 56.9548 29.2344 56.8116 29.1367C56.6684 29.0326 56.4893 28.9805 56.2745 28.9805C56.0141 28.9805 55.783 29.0521 55.5811 29.1953C55.3858 29.332 55.2166 29.5078 55.0733 29.7227C54.9301 29.931 54.8129 30.1589 54.7218 30.4062C54.6306 30.6536 54.5623 30.8815 54.5167 31.0898L57.4073 30.8164V30.6016ZM72.8565 31.1094C72.8565 31.6758 72.8175 32.2422 72.7393 32.8086C71.6261 32.8802 70.5193 32.9974 69.419 33.1602C68.3188 33.3164 67.2185 33.4727 66.1183 33.6289C66.2875 34.0977 66.5512 34.472 66.9093 34.752C67.2739 35.0319 67.7068 35.1719 68.2081 35.1719C68.4685 35.1719 68.7517 35.123 69.0577 35.0254C69.3702 34.9277 69.6794 34.8073 69.9854 34.6641C70.2914 34.5143 70.5844 34.3548 70.8643 34.1855C71.1443 34.0163 71.3852 33.8633 71.587 33.7266L71.1183 38.1602C70.8643 38.3555 70.5877 38.5215 70.2882 38.6582C69.9952 38.7949 69.6892 38.9056 69.3702 38.9902C69.0512 39.0749 68.7289 39.1367 68.4034 39.1758C68.0779 39.2148 67.7589 39.2344 67.4464 39.2344C66.8018 39.2344 66.2127 39.1465 65.6788 38.9707C65.1449 38.7949 64.6599 38.5508 64.2237 38.2383C63.794 37.9193 63.4164 37.5449 63.0909 37.1152C62.7654 36.6855 62.4952 36.2168 62.2804 35.709C62.0655 35.2012 61.9028 34.6641 61.7921 34.0977C61.6814 33.5312 61.6261 32.9583 61.6261 32.3789C61.6261 31.7734 61.6814 31.168 61.7921 30.5625C61.9028 29.957 62.0688 29.3743 62.2901 28.8145C62.518 28.2546 62.8012 27.737 63.1397 27.2617C63.4848 26.7799 63.8852 26.36 64.3409 26.002C64.7966 25.6439 65.311 25.3639 65.8839 25.1621C66.4633 24.9603 67.1013 24.8594 67.7979 24.8594C68.3774 24.8594 68.9047 24.9408 69.38 25.1035C69.8617 25.2598 70.2882 25.4811 70.6593 25.7676C71.0369 26.0475 71.3624 26.3828 71.6358 26.7734C71.9158 27.1641 72.1436 27.5938 72.3194 28.0625C72.5017 28.5247 72.6352 29.0163 72.7198 29.5371C72.811 30.0514 72.8565 30.5755 72.8565 31.1094ZM68.9503 30.6016C68.9503 30.4193 68.9308 30.2337 68.8917 30.0449C68.8526 29.8496 68.7875 29.6738 68.6964 29.5176C68.6117 29.3613 68.4978 29.2344 68.3546 29.1367C68.2114 29.0326 68.0323 28.9805 67.8175 28.9805C67.5571 28.9805 67.3259 29.0521 67.1241 29.1953C66.9288 29.332 66.7595 29.5078 66.6163 29.7227C66.4731 29.931 66.3559 30.1589 66.2647 30.4062C66.1736 30.6536 66.1052 30.8815 66.0597 31.0898L68.9503 30.8164V30.6016ZM45.7179 52.3789C45.7179 53.3099 45.6886 54.2376 45.63 55.1621C45.5714 56.0866 45.503 57.0143 45.4249 57.9453L40.4054 58.1797C40.5551 57.0469 40.6886 55.9141 40.8058 54.7812C40.9294 53.6419 40.9913 52.5026 40.9913 51.3633C40.9913 51.2917 40.988 51.168 40.9815 50.9922C40.975 50.8099 40.962 50.6048 40.9425 50.377C40.9294 50.1491 40.9067 49.9147 40.8741 49.6738C40.8481 49.4264 40.809 49.2018 40.7569 49C40.7114 48.7917 40.6528 48.6224 40.5811 48.4922C40.5095 48.362 40.4249 48.2969 40.3272 48.2969C40.0994 48.2969 39.9203 48.3848 39.7901 48.5605C39.6599 48.7298 39.5623 48.9349 39.4972 49.1758C39.4386 49.4167 39.4028 49.6641 39.3897 49.918C39.3767 50.1654 39.3702 50.3672 39.3702 50.5234C39.3702 50.7969 39.3767 51.0703 39.3897 51.3438C39.4028 51.6172 39.4093 51.8971 39.4093 52.1836C39.4093 53.1927 39.3832 54.1986 39.3311 55.2012C39.2856 56.2038 39.227 57.2096 39.1554 58.2188L34.5265 58.3945C34.6762 57.2617 34.8064 56.1322 34.9171 55.0059C35.0343 53.873 35.0929 52.737 35.0929 51.5977C35.0929 51.526 35.0896 51.3958 35.0831 51.207C35.0766 51.0182 35.0636 50.8066 35.044 50.5723C35.031 50.3379 35.0082 50.0938 34.9757 49.8398C34.9431 49.5859 34.9008 49.3548 34.8487 49.1465C34.8031 48.9316 34.7446 48.7559 34.6729 48.6191C34.6013 48.4824 34.5134 48.4141 34.4093 48.4141C34.2465 48.4141 34.1098 48.4792 33.9991 48.6094C33.8884 48.7331 33.7973 48.8958 33.7257 49.0977C33.6606 49.2995 33.6085 49.5241 33.5694 49.7715C33.5369 50.0124 33.5108 50.25 33.4913 50.4844C33.4783 50.7188 33.4685 50.9368 33.462 51.1387C33.462 51.334 33.4587 51.4805 33.4522 51.5781L33.2374 58.707H28.3155C28.4197 57.6068 28.5239 56.5033 28.628 55.3965C28.7387 54.2897 28.8331 53.1862 28.9112 52.0859C28.9959 50.9792 29.0642 49.8724 29.1163 48.7656C29.1684 47.6589 29.1944 46.5521 29.1944 45.4453L33.8429 45.25L33.8233 46.3828C33.9666 46.2005 34.1293 46.0182 34.3116 45.8359C34.4939 45.6471 34.686 45.4811 34.8878 45.3379C35.0961 45.1882 35.3142 45.0677 35.5421 44.9766C35.7765 44.8854 36.0173 44.8398 36.2647 44.8398C36.5837 44.8398 36.8702 44.8659 37.1241 44.918C37.378 44.9635 37.6059 45.0449 37.8077 45.1621C38.016 45.2793 38.1983 45.4421 38.3546 45.6504C38.5108 45.8522 38.6475 46.1094 38.7647 46.4219C38.9731 46.194 39.1814 45.9824 39.3897 45.7871C39.6046 45.5918 39.8292 45.4258 40.0636 45.2891C40.2979 45.1458 40.5518 45.0352 40.8253 44.957C41.0987 44.8789 41.4015 44.8398 41.7335 44.8398C42.365 44.8398 42.9021 44.9635 43.3448 45.2109C43.7875 45.4518 44.1554 45.7741 44.4483 46.1777C44.7478 46.5814 44.9789 47.0436 45.1417 47.5645C45.311 48.0853 45.4379 48.6257 45.5225 49.1855C45.6072 49.7454 45.6593 50.3021 45.6788 50.8555C45.7048 51.4089 45.7179 51.9167 45.7179 52.3789ZM58.6866 51.5195C58.6866 52.112 58.6183 52.6849 58.4815 53.2383C58.3448 53.7852 58.1462 54.2995 57.8858 54.7812C57.6319 55.263 57.3194 55.7057 56.9483 56.1094C56.5837 56.5065 56.1703 56.8483 55.7081 57.1348C55.2524 57.4212 54.7543 57.6458 54.214 57.8086C53.6736 57.9648 53.1007 58.043 52.4952 58.043C51.9093 58.043 51.3494 57.9681 50.8155 57.8184C50.2882 57.6686 49.7934 57.4603 49.3311 57.1934C48.8689 56.9199 48.449 56.5944 48.0714 56.2168C47.7003 55.8327 47.3813 55.4095 47.1143 54.9473C46.8539 54.4785 46.6489 53.9772 46.4991 53.4434C46.3559 52.9095 46.2843 52.3529 46.2843 51.7734C46.2843 51.207 46.3526 50.6536 46.4893 50.1133C46.6261 49.5664 46.8214 49.0521 47.0753 48.5703C47.3357 48.0885 47.6482 47.6458 48.0128 47.2422C48.3774 46.8385 48.7843 46.4902 49.2335 46.1973C49.6892 45.9043 50.1808 45.6764 50.7081 45.5137C51.2354 45.3509 51.7921 45.2695 52.378 45.2695C53.322 45.2695 54.1814 45.416 54.9561 45.709C55.7374 46.002 56.4015 46.4219 56.9483 46.9688C57.5017 47.5091 57.9281 48.1667 58.2276 48.9414C58.5336 49.7096 58.6866 50.569 58.6866 51.5195ZM54.3507 51.7734C54.3507 51.4935 54.3084 51.2233 54.2237 50.9629C54.1456 50.696 54.0284 50.4616 53.8722 50.2598C53.7159 50.0514 53.5206 49.8854 53.2862 49.7617C53.0584 49.6315 52.7947 49.5664 52.4952 49.5664C52.1892 49.5664 51.9158 49.6217 51.6749 49.7324C51.434 49.8431 51.2257 49.9961 51.0499 50.1914C50.8806 50.3802 50.7504 50.6048 50.6593 50.8652C50.5681 51.1191 50.5225 51.3893 50.5225 51.6758C50.5225 51.9492 50.5616 52.2227 50.6397 52.4961C50.7179 52.7695 50.835 53.0169 50.9913 53.2383C51.1475 53.4596 51.3396 53.6387 51.5675 53.7754C51.8018 53.9121 52.072 53.9805 52.378 53.9805C52.684 53.9805 52.9574 53.9219 53.1983 53.8047C53.4457 53.681 53.6541 53.5182 53.8233 53.3164C53.9926 53.1081 54.1228 52.8704 54.214 52.6035C54.3051 52.3366 54.3507 52.0599 54.3507 51.7734ZM70.8155 49.5859C70.8155 50.0938 70.7699 50.556 70.6788 50.9727C70.5942 51.3828 70.4574 51.7604 70.2686 52.1055C70.0798 52.4505 69.8357 52.7695 69.5362 53.0625C69.2367 53.3555 68.8754 53.6354 68.4522 53.9023L70.7765 58.043L66.3819 58.9023L64.878 54.7422L63.6671 54.7812L63.4913 58.8438H59.2921C59.3246 57.3594 59.3539 55.8815 59.38 54.4102C59.4125 52.9388 59.4483 51.4609 59.4874 49.9766C59.5004 49.2279 59.5134 48.4857 59.5265 47.75C59.5395 47.0143 59.5655 46.2721 59.6046 45.5234C60.0603 45.3542 60.5095 45.2142 60.9522 45.1035C61.3949 44.9928 61.8377 44.9082 62.2804 44.8496C62.7296 44.7845 63.1821 44.7422 63.6378 44.7227C64.1 44.6966 64.572 44.6836 65.0538 44.6836C65.796 44.6836 66.5121 44.7878 67.2022 44.9961C67.8989 45.1979 68.5141 45.5039 69.0479 45.9141C69.5818 46.3242 70.0082 46.8353 70.3272 47.4473C70.6528 48.0592 70.8155 48.7721 70.8155 49.5859ZM66.4405 49.8984C66.4405 49.625 66.4015 49.3743 66.3233 49.1465C66.2517 48.9186 66.141 48.7233 65.9913 48.5605C65.8481 48.3913 65.6658 48.2611 65.4444 48.1699C65.2296 48.0723 64.9757 48.0234 64.6827 48.0234C64.5525 48.0234 64.4255 48.0332 64.3018 48.0527C64.1781 48.0658 64.0577 48.0885 63.9405 48.1211L63.7843 51.7539H64.0186C64.2986 51.7539 64.5818 51.7181 64.8683 51.6465C65.1612 51.5749 65.4216 51.4642 65.6495 51.3145C65.8839 51.1647 66.0727 50.9727 66.2159 50.7383C66.3656 50.5039 66.4405 50.224 66.4405 49.8984ZM82.2999 51.1094C82.2999 51.6758 82.2608 52.2422 82.1827 52.8086C81.0694 52.8802 79.9627 52.9974 78.8624 53.1602C77.7621 53.3164 76.6619 53.4727 75.5616 53.6289C75.7309 54.0977 75.9946 54.472 76.3526 54.752C76.7172 55.0319 77.1502 55.1719 77.6515 55.1719C77.9119 55.1719 78.1951 55.123 78.5011 55.0254C78.8136 54.9277 79.1228 54.8073 79.4288 54.6641C79.7348 54.5143 80.0278 54.3548 80.3077 54.1855C80.5877 54.0163 80.8285 53.8633 81.0304 53.7266L80.5616 58.1602C80.3077 58.3555 80.031 58.5215 79.7315 58.6582C79.4386 58.7949 79.1326 58.9056 78.8136 58.9902C78.4946 59.0749 78.1723 59.1367 77.8468 59.1758C77.5212 59.2148 77.2022 59.2344 76.8897 59.2344C76.2452 59.2344 75.656 59.1465 75.1222 58.9707C74.5883 58.7949 74.1033 58.5508 73.6671 58.2383C73.2374 57.9193 72.8598 57.5449 72.5343 57.1152C72.2087 56.6855 71.9386 56.2168 71.7237 55.709C71.5089 55.2012 71.3461 54.6641 71.2354 54.0977C71.1248 53.5312 71.0694 52.9583 71.0694 52.3789C71.0694 51.7734 71.1248 51.168 71.2354 50.5625C71.3461 49.957 71.5121 49.3743 71.7335 48.8145C71.9614 48.2546 72.2446 47.737 72.5831 47.2617C72.9281 46.7799 73.3285 46.36 73.7843 46.002C74.24 45.6439 74.7543 45.3639 75.3272 45.1621C75.9067 44.9603 76.5447 44.8594 77.2413 44.8594C77.8207 44.8594 78.3481 44.9408 78.8233 45.1035C79.3051 45.2598 79.7315 45.4811 80.1026 45.7676C80.4802 46.0475 80.8058 46.3828 81.0792 46.7734C81.3591 47.1641 81.587 47.5938 81.7628 48.0625C81.9451 48.5247 82.0785 49.0163 82.1632 49.5371C82.2543 50.0514 82.2999 50.5755 82.2999 51.1094ZM78.3936 50.6016C78.3936 50.4193 78.3741 50.2337 78.335 50.0449C78.296 49.8496 78.2309 49.6738 78.1397 49.5176C78.0551 49.3613 77.9412 49.2344 77.7979 49.1367C77.6547 49.0326 77.4757 48.9805 77.2608 48.9805C77.0004 48.9805 76.7693 49.0521 76.5675 49.1953C76.3722 49.332 76.2029 49.5078 76.0597 49.7227C75.9164 49.931 75.7992 50.1589 75.7081 50.4062C75.6169 50.6536 75.5486 50.8815 75.503 51.0898L78.3936 50.8164V50.6016ZM87.7296 44.4883L86.9288 54.7617H83.3155L82.9444 44.4883H87.7296ZM87.085 57.7695C87.085 58.056 87.0297 58.3229 86.919 58.5703C86.8084 58.8177 86.6586 59.0326 86.4698 59.2148C86.2875 59.4036 86.0727 59.5501 85.8253 59.6543C85.5779 59.765 85.3142 59.8203 85.0343 59.8203C84.7478 59.8203 84.4809 59.765 84.2335 59.6543C83.9861 59.5501 83.768 59.4036 83.5792 59.2148C83.3969 59.0326 83.2504 58.8177 83.1397 58.5703C83.0356 58.3229 82.9835 58.056 82.9835 57.7695C82.9835 57.4896 83.0356 57.2227 83.1397 56.9688C83.2504 56.7148 83.3969 56.4967 83.5792 56.3145C83.768 56.1257 83.9861 55.9759 84.2335 55.8652C84.4809 55.7546 84.7478 55.6992 85.0343 55.6992C85.3142 55.6992 85.5779 55.7546 85.8253 55.8652C86.0727 55.9759 86.2875 56.1257 86.4698 56.3145C86.6586 56.4967 86.8084 56.7148 86.919 56.9688C87.0297 57.2227 87.085 57.4896 87.085 57.7695Z" fill="#FFFDF8"/>
<path d="M46.3333 69.3333H69.6667L58 87.6666L46.3333 69.3333Z" fill="#FFFDF8"/>
<defs>
<filter id="filter0_d_53_31" x="0" y="0" width="116" height="120" filterUnits="userSpaceOnUse" color-interpolation-filters="sRGB">
<feFlood flood-opacity="0" result="BackgroundImageFix"/>
<feColorMatrix in="SourceAlpha" type="matrix" values="0 0 0 0 0 0 0 0 0 0 0 0 0 0 0 0 0 0 127 0" result="hardAlpha"/>
<feOffset dy="8"/>
<feGaussianBlur stdDeviation="2"/>
<feComposite in2="hardAlpha" operator="out"/>
<feColorMatrix type="matrix" values="0 0 0 0 0 0 0 0 0 0 0 0 0 0 0 0 0 0 0.71 0"/>
<feBlend mode="normal" in2="BackgroundImageFix" result="effect1_dropShadow_53_31"/>
<feBlend mode="normal" in="SourceGraphic" in2="effect1_dropShadow_53_31" result="shape"/>
</filter>
</defs>
</svg>
