<svg width="100" height="102" viewBox="0 0 100 102" fill="none" xmlns="http://www.w3.org/2000/svg">
<g filter="url(#filter0_d_22_1498)">
<path d="M59.5492 2.63071C66.9272 -3.64683 78.0278 3.18429 75.7487 12.5996L72.7336 25.0556C71.7144 29.2663 73.5224 33.6543 77.212 35.9249L88.1266 42.6415C96.3769 47.7186 93.3104 60.3868 83.6516 61.1287L70.8735 62.1103C66.554 62.4421 62.9393 65.5176 61.9201 69.7283L58.905 82.1843C56.6259 91.5996 43.6301 92.5979 39.9397 83.6411L35.0576 71.7918C33.4072 67.7862 29.3652 65.2989 25.0457 65.6307L12.2676 66.6122C2.60885 67.3542 -2.3565 55.3029 5.02151 49.0254L14.7822 40.7205C18.0818 37.9131 19.1983 33.3004 17.548 29.2948L12.6658 17.4454C8.9754 8.48866 18.9025 0.0422989 27.1527 5.11933L38.0673 11.836C41.7569 14.1065 46.4889 13.743 49.7885 10.9356L59.5492 2.63071Z" fill="#7E1A1A"/>
<path d="M60.8452 4.15411C66.6555 -0.789516 75.3513 4.42868 73.8822 11.7778L73.8048 12.1292L70.7894 24.585C69.5663 29.6378 71.7361 34.9039 76.1637 37.6285L87.078 44.345C93.5752 48.3432 91.2998 58.2265 83.8563 59.1001L83.4981 59.1343L70.7199 60.1161C65.6987 60.502 61.4711 63.9774 60.0998 68.7877L59.9767 69.2578L56.9614 81.7136C55.1666 89.1282 45.0638 90.0181 41.9325 83.2093L41.7893 82.8793L36.9072 71.0296C34.9886 66.3731 30.3762 63.4262 25.3772 63.6086L24.8925 63.636L12.1143 64.6178C4.5081 65.202 0.540078 55.8693 6.04788 50.7872L6.31754 50.5484L16.078 42.2434C19.9137 38.9797 21.2914 33.6833 19.5732 28.9855L19.3974 28.5333L14.5154 16.6836C11.6092 9.63024 19.2587 2.97234 25.794 6.64002L26.1045 6.82306L37.0189 13.5396C41.308 16.179 46.7709 15.8517 50.7078 12.7661L51.0848 12.4591L60.8452 4.15411Z" stroke="white" stroke-width="4"/>
</g>
<defs>
<filter id="filter0_d_22_1498" x="0.474609" y="0.205528" width="99.4228" height="101.627" filterUnits="userSpaceOnUse" color-interpolation-filters="sRGB">
<feFlood flood-opacity="0" result="BackgroundImageFix"/>
<feColorMatrix in="SourceAlpha" type="matrix" values="0 0 0 0 0 0 0 0 0 0 0 0 0 0 0 0 0 0 127 0" result="hardAlpha"/>
<feOffset dx="3" dy="8"/>
<feGaussianBlur stdDeviation="2"/>
<feComposite in2="hardAlpha" operator="out"/>
<feColorMatrix type="matrix" values="0 0 0 0 0 0 0 0 0 0 0 0 0 0 0 0 0 0 0.72 0"/>
<feBlend mode="normal" in2="BackgroundImageFix" result="effect1_dropShadow_22_1498"/>
<feBlend mode="normal" in="SourceGraphic" in2="effect1_dropShadow_22_1498" result="shape"/>
</filter>
</defs>
</svg>
