<svg width="199" height="189" viewBox="0 0 199 189" fill="none" xmlns="http://www.w3.org/2000/svg">
<g filter="url(#filter0_d_10_952)">
<path d="M99.5 0L113.002 30.4722L138.343 7.86736L137.671 40.938L170.47 30.1091L155.74 60.06L190.326 62.8795L164.084 84.5318L194.477 100.512L161.262 110.122L182.205 136.5L147.76 132.406L155.633 164.621L125.913 147.53L119.356 180.011L99.5 152.88L79.6444 180.011L73.0865 147.53L43.3665 164.621L51.2402 132.406L16.7946 136.5L37.7384 110.122L4.52316 100.512L34.9157 84.5318L8.6741 62.8795L43.2603 60.06L28.5297 30.1091L61.3292 40.938L60.6567 7.86736L85.9982 30.4722L99.5 0Z" fill="#7E1A1A"/>
<path d="M111.173 31.2822L112.285 33.792L114.333 31.9648L136.25 12.4141L135.671 40.8975L135.613 43.7236L138.298 42.8369L166.573 33.501L153.945 59.1777L152.647 61.8145L155.577 62.0537L185.252 64.4727L162.812 82.9893L160.492 84.9023L163.153 86.3018L189.15 99.9707L160.706 108.201L157.841 109.029L159.695 111.365L177.619 133.94L147.996 130.42L145.133 130.079L145.817 132.881L152.581 160.558L126.91 145.797L124.503 144.412L123.953 147.135L118.292 175.172L101.114 151.699L99.5 149.493L97.8857 151.699L80.707 175.172L75.0469 147.135L74.4971 144.412L72.0898 145.797L46.418 160.558L53.1826 132.881L53.8672 130.079L51.0039 130.42L21.3799 133.94L39.3047 111.365L41.1592 109.029L38.2939 108.201L9.84863 99.9707L35.8467 86.3018L38.5078 84.9023L36.1885 82.9893L13.7471 64.4727L43.4229 62.0537L46.3525 61.8145L45.0547 59.1777L32.4258 33.501L60.7021 42.8369L63.3867 43.7236L63.3291 40.8975L62.749 12.4141L84.667 31.9648L86.7148 33.792L87.8271 31.2822L99.5 4.93652L111.173 31.2822Z" stroke="white" stroke-width="4"/>
</g>
<defs>
<filter id="filter0_d_10_952" x="0.523163" y="0" width="197.954" height="188.011" filterUnits="userSpaceOnUse" color-interpolation-filters="sRGB">
<feFlood flood-opacity="0" result="BackgroundImageFix"/>
<feColorMatrix in="SourceAlpha" type="matrix" values="0 0 0 0 0 0 0 0 0 0 0 0 0 0 0 0 0 0 127 0" result="hardAlpha"/>
<feOffset dy="4"/>
<feGaussianBlur stdDeviation="2"/>
<feComposite in2="hardAlpha" operator="out"/>
<feColorMatrix type="matrix" values="0 0 0 0 0 0 0 0 0 0 0 0 0 0 0 0 0 0 0.42 0"/>
<feBlend mode="normal" in2="BackgroundImageFix" result="effect1_dropShadow_10_952"/>
<feBlend mode="normal" in="SourceGraphic" in2="effect1_dropShadow_10_952" result="shape"/>
</filter>
</defs>
</svg>
